<svg width="111" height="160" viewBox="0 0 111 160" fill="none" xmlns="http://www.w3.org/2000/svg">
<path fill-rule="evenodd" clip-rule="evenodd" d="M55.4959 0.956503L55.6071 0.955078V0.958138C86.2791 1.4382 110.992 25.8347 110.992 55.8599C108.822 92.0217 82.0913 103.584 66.7607 110.216L66.4771 110.339C56.8183 114.256 57.4694 121.665 57.4694 121.665C57.4694 121.665 55.7769 123.957 55.429 123.451C54.5316 123.937 53.5223 121.665 53.5223 121.665C53.5223 121.665 54.1735 114.256 44.5146 110.339L44.2312 110.216C28.9004 103.585 2.17017 92.0218 0 55.8599C0 25.8347 24.7125 1.4382 55.3847 0.958138V0.955078L55.4959 0.956503ZM55.4957 74.3C64.8411 74.3 72.4171 66.724 72.4171 57.3785C72.4171 48.033 64.8411 40.457 55.4957 40.457C46.1502 40.457 38.5742 48.033 38.5742 57.3785C38.5742 66.724 46.1502 74.3 55.4957 74.3Z" fill="#FF0000"/>
<circle cx="55.6396" cy="149.148" r="10" fill="#FF0000"/>
<g clip-path="url(#clip0)">
<path d="M56.8642 91.8008C76.4153 91.8008 92.2645 75.9515 92.2645 56.4005C92.2645 36.8495 76.4153 21.0002 56.8642 21.0002C37.3132 21.0002 21.464 36.8495 21.464 56.4005C21.464 75.9515 37.3132 91.8008 56.8642 91.8008Z" fill="#FF0000"/>
<path d="M38.2375 67.1522H41.5414C45.3241 67.1522 45.771 69.7218 45.771 70.8393C45.771 72.3236 44.973 74.4943 41.5414 74.4943H40.4242V78.9632H38.2375V67.1522ZM40.4242 72.3715H41.717C42.2916 72.3715 43.5843 72.2756 43.5843 70.8231C43.5843 69.3709 42.2916 69.275 41.717 69.275H40.4242V72.3715Z" fill="white"/>
<path d="M55.8897 74.5563C55.8897 77.126 53.8946 79.2488 51.1972 79.2488C48.4998 79.2488 46.5046 77.126 46.5046 74.5563C46.5046 71.9705 48.4839 69.8319 51.1972 69.8319C53.9105 69.8319 55.8897 71.9705 55.8897 74.5563ZM48.6275 74.5563C48.6275 75.9927 49.633 77.2376 51.1972 77.2376C52.7613 77.2376 53.7668 75.9927 53.7668 74.5563C53.7668 73.1198 52.7773 71.8428 51.1972 71.8428C49.6171 71.8428 48.6275 73.1198 48.6275 74.5563Z" fill="white"/>
<path d="M65.9443 70.5344C65.3538 69.7842 64.3801 69.066 62.9757 69.066C60.6134 69.066 58.9695 70.9815 58.9695 73.0562C58.9695 75.2747 60.7251 77.1263 62.9915 77.1263C64.045 77.1263 65.0984 76.7113 65.8326 75.7537H68.3704C67.3968 77.8284 65.4974 79.2491 62.9278 79.2491C58.7939 79.2491 56.7828 75.7695 56.7828 73.0562C56.7828 70.4227 58.778 66.9432 62.9596 66.9432C65.4016 66.9432 67.4446 68.2679 68.4342 70.5344H65.9443Z" fill="white"/>
<path d="M71.0193 69.275H68.8326V67.1522H75.3925V69.275H73.2059V78.9632H71.0193V69.275Z" fill="white"/>
<path d="M70.2645 84.8285C69.9744 84.9588 69.6876 85.0534 69.4036 85.1126C69.2969 85.1126 69.2437 85.0591 69.2437 84.9528C69.2437 84.9172 69.2614 84.8462 69.2969 84.7398C69.3325 84.6451 69.3916 84.5149 69.4744 84.3491C69.5572 84.1836 69.6431 84.0118 69.7319 83.8344C69.8206 83.6567 69.9033 83.4881 69.9804 83.3283C70.0572 83.1685 70.1136 83.0532 70.1492 82.9821C70.1847 82.8874 70.2436 82.7426 70.3266 82.5472C70.4094 82.3518 70.4509 82.1597 70.4509 81.9703C70.4509 81.7926 70.3858 81.6507 70.2555 81.5441C70.1253 81.4377 69.9774 81.3843 69.8119 81.3843C69.6223 81.3843 69.4391 81.4171 69.2614 81.482C69.0839 81.5473 68.9241 81.6328 68.7822 81.7394C68.5926 81.8933 68.359 82.0886 68.0808 82.3252C67.8027 82.5621 67.5156 82.8047 67.2199 83.0532C66.9239 83.3018 66.6458 83.5443 66.3856 83.7809C66.1251 84.0178 65.9178 84.2072 65.7642 84.3491C65.9653 83.8759 66.1753 83.3964 66.3943 82.911C66.6132 82.4259 66.8409 81.9169 67.0778 81.3843L65.3735 81.5796L64.0277 84.5955C63.8535 84.6723 63.6817 84.7471 63.5008 84.8285C63.2105 84.9588 62.9237 85.0534 62.6396 85.1126C62.5332 85.1126 62.4798 85.0591 62.4798 84.9528C62.4798 84.9172 62.4977 84.8462 62.5332 84.7398C62.5688 84.6451 62.6277 84.5149 62.7107 84.3491C62.7935 84.1836 62.8794 84.0118 62.9681 83.8344C63.0569 83.6567 63.1394 83.4881 63.2167 83.3283C63.2935 83.1685 63.3497 83.0532 63.3852 82.9821C63.4208 82.8874 63.4799 82.7426 63.5629 82.5472C63.6454 82.3518 63.6872 82.1597 63.6872 81.9703C63.6872 81.7926 63.6218 81.6507 63.4918 81.5441C63.3614 81.4377 63.2135 81.3843 63.048 81.3843C62.8586 81.3843 62.6752 81.4171 62.4977 81.482C62.32 81.5473 62.1604 81.6328 62.0182 81.7394C61.8289 81.8933 61.595 82.0886 61.3171 82.3252C61.0388 82.5621 60.7517 82.8047 60.456 83.0532C60.1602 83.3018 59.8818 83.5443 59.6216 83.7809C59.3611 84.0178 59.1541 84.2072 59.0002 84.3491C59.2013 83.8759 59.4113 83.3964 59.6305 82.911C59.8495 82.4259 60.0772 81.9169 60.314 81.3843L58.6098 81.5796L57.311 84.4901C57.2336 84.5336 57.1489 84.578 57.0475 84.6242C56.9056 84.6896 56.7485 84.7547 56.577 84.8196C56.4055 84.8847 56.2368 84.9439 56.0712 84.997C55.9052 85.0504 55.7633 85.089 55.645 85.1126C55.8816 84.6155 56.1068 84.1154 56.3198 83.6124C56.5328 83.1094 57.0639 81.9855 57.2891 81.4884C57.2061 81.5003 55.8001 81.7229 55.6589 81.7567C55.647 81.7923 55.2369 82.6359 55.2014 82.7246C55.1658 82.8134 55.1213 82.911 55.0681 83.0177C55.0149 83.1241 54.9615 83.2279 54.9084 83.3283C54.8552 83.429 54.8047 83.5031 54.7575 83.5503C54.722 83.5858 54.6539 83.642 54.5532 83.7188C54.4525 83.7961 54.3491 83.8729 54.2425 83.9497C54.1361 84.0267 54.0355 84.1005 53.9408 84.1716C53.8459 84.2427 53.7869 84.2842 53.7633 84.2959L53.7102 84.3314C53.6271 84.3906 53.5148 84.4617 53.3726 84.5444C53.2307 84.6275 53.0945 84.6983 52.9645 84.7574C52.9171 84.7813 52.8785 84.7989 52.849 84.8106C52.8194 84.8226 52.7928 84.8285 52.7692 84.8285C52.6981 84.8285 52.6626 84.787 52.6626 84.7043C52.6626 84.6451 52.6804 84.5653 52.716 84.4644C52.7513 84.364 52.7868 84.2663 52.8223 84.1716C52.8815 84.0178 52.9613 83.8373 53.0619 83.6301C53.1624 83.4233 53.269 83.1981 53.3816 82.9555C53.4939 82.7129 53.6063 82.4584 53.7189 82.192C53.8312 81.9259 53.9301 81.6839 54.0367 81.4115L52.3785 81.6152C52.3665 81.6627 52.3044 81.8165 52.192 82.0767C52.0795 82.3372 51.9465 82.6359 51.7927 82.9732C51.6388 83.3105 51.4847 83.6567 51.3311 84.0118C51.2471 84.2059 51.1736 84.3787 51.1072 84.5374C51.0786 84.5512 51.0523 84.5632 51.0205 84.58C50.9079 84.6394 50.7898 84.7015 50.6655 84.7664C50.5413 84.8315 50.4138 84.8879 50.2838 84.9349C50.1533 84.9823 50.029 85.006 49.911 85.006C49.8516 85.006 49.7894 85.0003 49.7246 84.9883C49.6595 84.9766 49.6269 84.9292 49.6269 84.8462V84.793C49.6269 84.7694 49.6446 84.7281 49.6801 84.6687C49.6918 84.6332 49.7362 84.5265 49.8133 84.3491C49.8901 84.1716 49.9731 83.9763 50.0619 83.7633C50.1506 83.5503 50.242 83.3343 50.337 83.1154C50.4317 82.8964 50.5085 82.7219 50.5679 82.5917C50.6623 82.367 50.7098 82.1833 50.7098 82.0411C50.7098 81.9586 50.7038 81.8992 50.6922 81.8637C50.6211 81.5679 50.3961 81.4198 50.0174 81.4198C49.7216 81.4198 49.4375 81.5147 49.1654 81.7039C48.893 81.8933 48.6328 82.1185 48.3842 82.3784C48.1357 82.6389 47.9018 82.9083 47.6829 83.1862C47.4639 83.4645 47.2539 83.6984 47.0528 83.8876C47.0998 83.6865 47.1505 83.4854 47.2036 83.2838C47.2568 83.0828 47.2835 82.8755 47.2835 82.6625C47.2835 82.4378 47.2449 82.2188 47.1681 82.0056C47.0911 81.7926 46.9934 81.5858 46.8751 81.3843C46.7687 81.4082 45.3983 81.6654 45.3511 81.6769C45.5641 82.0204 45.7212 82.4733 45.7212 82.8755C45.7212 83.0771 45.6858 83.2838 45.6148 83.4969L45.3123 84.3089C45.2604 84.3305 45.2099 84.3511 45.1532 84.3756C44.9755 84.4527 44.7891 84.5327 44.594 84.6155C44.3987 84.6983 44.2093 84.7783 44.0259 84.8551C43.8422 84.9321 43.6914 84.9883 43.573 85.0236L43.4311 85.0591C43.1587 85.1303 42.943 85.0947 42.7832 84.9528C42.6234 84.8106 42.5729 84.6215 42.6323 84.3846C42.6559 84.2544 42.721 84.1244 42.8274 83.9939C42.9341 83.8639 43.0583 83.7307 43.2002 83.5945C43.3424 83.4586 43.4902 83.3256 43.6441 83.1951C43.7977 83.0651 43.9339 82.929 44.0524 82.7868C44.2299 82.5738 44.3542 82.3551 44.4253 82.1299C44.4963 81.9052 44.431 81.7101 44.2299 81.5441C44.0405 81.3786 43.8156 81.2869 43.5554 81.2689C43.2949 81.2513 43.0317 81.2779 42.7653 81.349C42.4991 81.4198 42.2416 81.5237 41.9931 81.6596C41.7446 81.7959 41.5432 81.9408 41.3896 82.0946C41.3302 82.1418 41.2445 82.2159 41.1321 82.3163C41.0195 82.4172 40.8953 82.5325 40.7593 82.6625C40.7283 82.6925 40.6937 82.7255 40.6597 82.7579C40.6597 82.7842 40.8578 83.0208 40.9373 83.078C40.9786 83.0397 41.0198 83.0008 41.0611 82.9645C41.2089 82.8342 41.3508 82.7159 41.4871 82.6093C41.623 82.5027 41.7446 82.4202 41.8511 82.3608C42.0048 82.278 42.1469 82.2338 42.2771 82.2275C42.4074 82.2218 42.5018 82.2427 42.5612 82.2897C42.644 82.3727 42.6793 82.4704 42.6678 82.5827C42.6559 82.6953 42.6114 82.8166 42.5346 82.9466C42.4576 83.0771 42.3599 83.2071 42.2416 83.3373C42.1233 83.4675 42.0048 83.5858 41.8867 83.6922C41.7562 83.7988 41.6203 83.9203 41.4784 84.056C41.3362 84.1923 41.2119 84.3344 41.1056 84.4823C40.9989 84.6304 40.9249 84.784 40.8836 84.9439C40.8418 85.1036 40.857 85.2664 40.9279 85.4319C40.987 85.5505 41.0966 85.6567 41.2564 85.7516C41.4162 85.8463 41.5964 85.8935 41.7977 85.8935C42.0226 85.8935 42.3127 85.8403 42.6678 85.7339C43.0228 85.6273 43.3866 85.503 43.7594 85.3611C44.1323 85.219 44.4874 85.0743 44.8247 84.9262C44.9405 84.8755 45.0357 84.832 45.1341 84.7875L43.9814 87.882C43.8514 88.1659 43.7863 88.4678 43.7863 88.7872C43.7863 88.8228 43.7892 88.8611 43.795 88.9028C43.8012 88.944 43.8039 88.9826 43.8039 89.0181C44.0408 89.0062 44.301 88.9853 44.5851 88.956C44.8691 88.9264 45.1115 88.8995 45.313 88.8762C45.3364 88.651 45.3632 88.4589 45.3928 88.2991C45.4221 88.1393 45.4667 87.9765 45.5261 87.811L45.9344 86.6747C46.0408 86.3553 46.171 86.0148 46.3248 85.6539C46.4784 85.293 46.6738 84.9704 46.9107 84.6863C46.9343 84.6627 46.9964 84.5949 47.0971 84.4823C47.1974 84.3699 47.3071 84.2427 47.4256 84.1005C47.5437 83.9586 47.659 83.8165 47.7718 83.6745C47.8842 83.5324 47.9696 83.426 48.029 83.3549C48.0882 83.2838 48.1712 83.1862 48.2776 83.0619C48.3842 82.9377 48.4906 82.8462 48.5972 82.7868C48.6564 82.7278 48.7038 82.6981 48.7394 82.6981C48.8102 82.6981 48.8457 82.7455 48.8457 82.8402C48.8457 82.8521 48.8428 82.8608 48.8368 82.8668C48.8308 82.8728 48.8281 82.8874 48.8281 82.911C48.8043 82.9941 48.7627 83.1036 48.7038 83.2396C48.6444 83.3758 48.5763 83.5237 48.4995 83.6832C48.4225 83.8431 48.3425 84.0091 48.2599 84.1805C48.177 84.3521 48.1002 84.5149 48.029 84.6687C47.9344 84.8936 47.8871 85.1066 47.8871 85.3077C47.8871 85.5326 47.9669 85.6718 48.1267 85.725C48.2866 85.7782 48.467 85.8048 48.6683 85.8048C48.8457 85.8048 49.0172 85.7871 49.183 85.7516C49.3488 85.716 49.5143 85.6686 49.6801 85.6097C49.9523 85.4913 50.2274 85.3581 50.5058 85.21C50.6566 85.13 50.7921 85.0588 50.9342 84.9837C50.9059 85.0787 50.8873 85.1881 50.8873 85.3256C50.8873 85.4794 50.92 85.6156 50.9849 85.7339C51.0498 85.852 51.1773 85.9114 51.3667 85.9114C51.6033 85.9114 51.8016 85.8815 51.9614 85.8226C52.1212 85.7632 52.3014 85.6745 52.5027 85.5562C52.5738 85.5207 52.7071 85.4382 52.9024 85.3077C53.0975 85.1777 53.3045 85.0355 53.5238 84.8817C53.7424 84.7281 53.9497 84.583 54.1451 84.4468C54.3402 84.3108 54.4734 84.2131 54.5445 84.1537C54.5089 84.2487 54.4614 84.364 54.4023 84.4999C54.3429 84.6362 54.2808 84.7751 54.2159 84.9172C54.1508 85.0591 54.0857 85.1986 54.0208 85.3343C53.9554 85.4705 53.9053 85.5861 53.8697 85.6805C53.8344 85.8107 53.7102 85.9231 53.4969 86.0178C53.2839 86.1125 53.0945 86.2012 52.929 86.2842C52.6685 86.4142 52.414 86.5621 52.1655 86.7281C51.9169 86.8936 51.695 87.083 51.4999 87.296C51.3045 87.5092 51.1475 87.7426 51.0294 87.9974C50.9111 88.2516 50.8517 88.5267 50.8517 88.8228C50.8517 88.9649 50.8815 89.086 50.9407 89.1869C50.9999 89.2873 51.1062 89.3377 51.2601 89.3377C51.5086 89.3377 51.7688 89.3022 52.0412 89.2311C52.3133 89.16 52.5765 89.0626 52.8313 88.9383C53.0856 88.8141 53.3254 88.6719 53.5503 88.5121C53.775 88.3523 53.9763 88.1838 54.1538 88.0063C54.3195 87.8403 54.4675 87.6246 54.5977 87.3581C54.7279 87.092 54.8522 86.8581 54.9705 86.657C55.0532 86.4795 55.1449 86.2723 55.2456 86.0357C55.346 85.7988 55.4201 85.639 55.4675 85.5562C55.8227 85.4854 56.1804 85.3671 56.5418 85.2013C56.7687 85.0971 56.9575 85.006 57.1166 84.9252L56.6924 85.8758C56.7634 85.8758 56.8788 85.8639 57.0385 85.8403C57.1984 85.8164 57.3671 85.7928 57.5446 85.7692C57.722 85.7454 57.8908 85.725 58.0506 85.7071C58.2104 85.6894 58.3257 85.6745 58.3968 85.6629C58.4557 85.5207 58.5325 85.3937 58.6275 85.2811C58.7221 85.1688 58.8405 85.0475 58.9826 84.9172C59.3967 84.574 59.808 84.2131 60.2164 83.8344C60.6247 83.4556 61.0358 83.0887 61.4501 82.7336C61.5329 82.6508 61.604 82.6093 61.6634 82.6093C61.7223 82.6093 61.7521 82.6449 61.7521 82.7159C61.7521 82.7632 61.7342 82.8285 61.6986 82.911C61.5803 83.2426 61.4262 83.5679 61.2371 83.8876C61.0477 84.2072 60.8879 84.5504 60.7579 84.9172C60.6985 85.083 60.6692 85.2488 60.6692 85.4143C60.6692 85.6156 60.7666 85.7426 60.962 85.7961C61.1573 85.8493 61.3437 85.8758 61.5212 85.8758C61.5803 85.8758 61.7521 85.8403 62.0362 85.7692C62.32 85.6984 62.6277 85.598 62.9592 85.4675C63.3025 85.3256 63.5863 85.1954 63.8115 85.0771C63.812 85.0767 63.8124 85.0764 63.8132 85.076L63.4563 85.8758C63.5274 85.8758 63.6427 85.8639 63.8025 85.8403C63.9623 85.8164 64.1308 85.7928 64.3083 85.7692C64.486 85.7454 64.6545 85.725 64.8143 85.7071C64.9741 85.6894 65.0894 85.6745 65.1605 85.6629C65.2197 85.5207 65.2965 85.3937 65.3914 85.2811C65.4858 85.1688 65.6044 85.0475 65.7463 84.9172C66.1606 84.574 66.572 84.2131 66.9803 83.8344C67.3884 83.4556 67.7997 83.0887 68.2141 82.7336C68.2968 82.6508 68.3677 82.6093 68.427 82.6093C68.4862 82.6093 68.5158 82.6449 68.5158 82.7159C68.5158 82.7632 68.4981 82.8285 68.4626 82.911C68.3441 83.2426 68.1902 83.5679 68.001 83.8876C67.8117 84.2072 67.6519 84.5504 67.5216 84.9172C67.4622 85.083 67.4329 85.2488 67.4329 85.4143C67.4329 85.6156 67.5306 85.7426 67.7259 85.7961C67.921 85.8493 68.1074 85.8758 68.2851 85.8758C68.3441 85.8758 68.5158 85.8403 68.7999 85.7692C69.0839 85.6984 69.3916 85.598 69.7229 85.4675C70.0662 85.3256 70.3503 85.1954 70.5752 85.0771C70.7999 84.9588 70.9773 84.8581 71.1078 84.7751V84.4557C70.8354 84.574 70.5543 84.6983 70.2645 84.8285ZM53.3018 86.9587C53.1951 87.1834 53.0769 87.4498 52.9466 87.7578C52.9228 87.8167 52.8755 87.8997 52.8047 88.0063C52.7336 88.1127 52.6539 88.2193 52.5649 88.3257C52.4761 88.4323 52.3874 88.5238 52.2987 88.6008C52.21 88.6779 52.1299 88.7164 52.0591 88.7164C51.9997 88.7164 51.9585 88.6898 51.9348 88.6364C51.911 88.5832 51.8993 88.5267 51.8993 88.4678C51.8993 88.0888 52.0174 87.725 52.2542 87.376C52.4908 87.0268 52.7692 86.7634 53.0888 86.5859C53.1122 86.574 53.1477 86.5563 53.1951 86.5327C53.2424 86.5089 53.2956 86.4853 53.355 86.4617C53.4141 86.4261 53.4793 86.3966 53.5503 86.3729C53.4909 86.5385 53.4082 86.7338 53.3018 86.9587Z" fill="white"/>
<path d="M52.7641 64.4657C51.2166 64.4657 49.8689 64.3332 48.3944 64.036L47.2367 63.8025V56.0038C42.5704 53.9066 39.3291 49.3475 39.3291 44.0741C39.3291 36.8185 45.4644 30.9157 53.0058 30.9157C56.2837 30.9157 59.2783 31.9135 61.6659 33.8012C62.2909 34.2953 62.397 35.2028 61.9028 35.8278C61.4085 36.4528 60.5011 36.5589 59.8762 36.0648C58.0033 34.5841 55.6276 33.8014 53.0058 33.8014C47.0556 33.8014 42.2148 38.4096 42.2148 44.0741C42.2148 47.7202 44.2205 50.9287 47.2367 52.7523V39.0984L48.5141 38.9509C50.3505 38.739 51.6867 38.6975 53.3739 38.6975C60.8181 38.6975 65.4426 42.2176 65.4426 47.8838C65.4426 50.7851 64.0421 53.3067 61.4991 54.9842C59.301 56.4341 56.2847 57.2325 53.0058 57.2325C52.0171 57.2325 51.052 57.131 50.1224 56.9383V61.4053C50.9811 61.5248 51.8303 61.58 52.7641 61.58C63.0732 61.58 71.4603 53.7263 71.4603 44.0726C71.4603 34.4191 63.0732 26.5654 52.7641 26.5654C51.5822 26.5654 50.7317 26.6296 49.7309 26.7946C48.9449 26.9247 48.2022 26.392 48.0725 25.6056C47.9429 24.8194 48.4753 24.0769 49.2615 23.9474C50.415 23.7572 51.4298 23.6797 52.7641 23.6797C64.6644 23.6797 74.346 32.8279 74.346 44.0726C74.346 55.3175 64.6644 64.4657 52.7641 64.4657ZM50.1224 53.9745C51.0406 54.2173 52.0074 54.3468 53.0058 54.3468C57.7598 54.3468 62.5569 52.3484 62.5569 47.8838C62.5569 43.9386 59.124 41.5832 53.3739 41.5832C52.2135 41.5832 51.2329 41.6039 50.1224 41.6922V53.9745Z" fill="white"/>
</g>
<defs>
<clipPath id="clip0">
<rect width="73.7665" height="70.6929" fill="white" transform="translate(19.3438 21)"/>
</clipPath>
</defs>
</svg>
