<svg width="294" height="71" viewBox="0 0 294 71" fill="none" xmlns="http://www.w3.org/2000/svg">
<g clip-path="url(#clip0)">
<path d="M37.5205 70.8008C57.0715 70.8008 72.9207 54.9515 72.9207 35.4005C72.9207 15.8495 57.0715 0.000244141 37.5205 0.000244141C17.9695 0.000244141 2.12024 15.8495 2.12024 35.4005C2.12024 54.9515 17.9695 70.8008 37.5205 70.8008Z" fill="white"/>
<path d="M18.8938 46.1521H22.1977C25.9804 46.1521 26.4272 48.7217 26.4272 49.8392C26.4272 51.3234 25.6292 53.4941 22.1977 53.4941H21.0804V57.9631H18.8938V46.1521ZM21.0804 51.3714H22.3732C22.9478 51.3714 24.2406 51.2754 24.2406 49.823C24.2406 48.3708 22.9478 48.2749 22.3732 48.2749H21.0804V51.3714Z" fill="#2D78CD"/>
<path d="M36.5459 53.5562C36.5459 56.1258 34.5508 58.2486 31.8534 58.2486C29.156 58.2486 27.1609 56.1258 27.1609 53.5562C27.1609 50.9704 29.1402 48.8318 31.8534 48.8318C34.5667 48.8318 36.5459 50.9704 36.5459 53.5562ZM29.2838 53.5562C29.2838 54.9925 30.2892 56.2375 31.8534 56.2375C33.4176 56.2375 34.4231 54.9925 34.4231 53.5562C34.4231 52.1197 33.4335 50.8427 31.8534 50.8427C30.2734 50.8427 29.2838 52.1197 29.2838 53.5562Z" fill="#2D78CD"/>
<path d="M46.6006 49.5342C46.01 48.7841 45.0364 48.0659 43.6319 48.0659C41.2697 48.0659 39.6257 49.9814 39.6257 52.0561C39.6257 54.2746 41.3814 56.1262 43.6478 56.1262C44.7012 56.1262 45.7547 55.7111 46.4888 54.7535H49.0266C48.053 56.8283 46.1537 58.249 43.5841 58.249C39.4501 58.249 37.4391 54.7694 37.4391 52.0561C37.4391 49.4226 39.4342 45.9431 43.6159 45.9431C46.0579 45.9431 48.1009 47.2678 49.0904 49.5342H46.6006Z" fill="#2D78CD"/>
<path d="M51.6755 48.2749H49.4889V46.1521H56.0488V48.2749H53.8622V57.9631H51.6755V48.2749Z" fill="#2D78CD"/>
<path d="M50.9207 63.8285C50.6307 63.9588 50.3439 64.0534 50.0598 64.1126C49.9532 64.1126 49.9 64.0591 49.9 63.9528C49.9 63.9172 49.9176 63.8462 49.9532 63.7398C49.9887 63.6451 50.0479 63.5149 50.1307 63.3491C50.2134 63.1836 50.2994 63.0118 50.3881 62.8344C50.4768 62.6567 50.5596 62.4881 50.6367 62.3283C50.7135 62.1685 50.7699 62.0532 50.8054 61.9821C50.841 61.8874 50.8999 61.7426 50.9829 61.5472C51.0656 61.3518 51.1071 61.1597 51.1071 60.9703C51.1071 60.7926 51.042 60.6507 50.9118 60.5441C50.7816 60.4377 50.6337 60.3843 50.4682 60.3843C50.2785 60.3843 50.0953 60.4171 49.9176 60.482C49.7402 60.5473 49.5804 60.6328 49.4385 60.7394C49.2488 60.8933 49.0152 61.0886 48.7371 61.3252C48.459 61.5621 48.1719 61.8047 47.8762 62.0532C47.5801 62.3018 47.302 62.5443 47.0418 62.7809C46.7813 63.0178 46.5741 63.2072 46.4205 63.3491C46.6215 62.8759 46.8315 62.3964 47.0505 61.911C47.2695 61.4259 47.4971 60.9169 47.734 60.3843L46.0298 60.5796L44.6839 63.5955C44.5097 63.6723 44.338 63.7471 44.157 63.8285C43.8667 63.9588 43.5799 64.0534 43.2958 64.1126C43.1895 64.1126 43.1361 64.0591 43.1361 63.9528C43.1361 63.9172 43.1539 63.8462 43.1895 63.7398C43.225 63.6451 43.2839 63.5149 43.3669 63.3491C43.4497 63.1836 43.5357 63.0118 43.6244 62.8344C43.7132 62.6567 43.7957 62.4881 43.8729 62.3283C43.9498 62.1685 44.0059 62.0532 44.0415 61.9821C44.077 61.8874 44.1361 61.7426 44.2192 61.5472C44.3017 61.3518 44.3434 61.1597 44.3434 60.9703C44.3434 60.7926 44.2781 60.6507 44.1481 60.5441C44.0176 60.4377 43.8697 60.3843 43.7042 60.3843C43.5148 60.3843 43.3314 60.4171 43.1539 60.482C42.9762 60.5473 42.8167 60.6328 42.6745 60.7394C42.4851 60.8933 42.2513 61.0886 41.9734 61.3252C41.695 61.5621 41.4079 61.8047 41.1122 62.0532C40.8164 62.3018 40.5381 62.5443 40.2778 62.7809C40.0174 63.0178 39.8104 63.2072 39.6565 63.3491C39.8576 62.8759 40.0676 62.3964 40.2868 61.911C40.5058 61.4259 40.7334 60.9169 40.9703 60.3843L39.266 60.5796L37.9672 63.4901C37.8899 63.5336 37.8051 63.578 37.7037 63.6242C37.5618 63.6896 37.4048 63.7547 37.2333 63.8196C37.0618 63.8847 36.893 63.9439 36.7275 63.997C36.5615 64.0504 36.4196 64.089 36.3012 64.1126C36.5379 63.6155 36.7631 63.1154 36.976 62.6124C37.189 62.1094 37.7201 60.9855 37.9453 60.4884C37.8623 60.5003 36.4563 60.7229 36.3152 60.7567C36.3032 60.7923 35.8932 61.6359 35.8576 61.7246C35.8221 61.8134 35.7776 61.911 35.7244 62.0177C35.6712 62.1241 35.6178 62.2279 35.5646 62.3283C35.5114 62.429 35.461 62.5031 35.4137 62.5503C35.3782 62.5858 35.3101 62.642 35.2094 62.7188C35.1088 62.7961 35.0054 62.8729 34.8988 62.9497C34.7924 63.0267 34.6917 63.1005 34.597 63.1716C34.5021 63.2427 34.4432 63.2842 34.4196 63.2959L34.3664 63.3314C34.2834 63.3906 34.171 63.4617 34.0289 63.5444C33.887 63.6275 33.7508 63.6983 33.6208 63.7574C33.5733 63.7813 33.5348 63.7989 33.5052 63.8106C33.4756 63.8226 33.449 63.8285 33.4254 63.8285C33.3543 63.8285 33.3188 63.787 33.3188 63.7043C33.3188 63.6451 33.3367 63.5653 33.3722 63.4644C33.4075 63.364 33.4431 63.2663 33.4786 63.1716C33.5377 63.0178 33.6176 62.8373 33.7182 62.6301C33.8186 62.4233 33.9253 62.1981 34.0378 61.9555C34.1502 61.7129 34.2625 61.4584 34.3751 61.192C34.4874 60.9259 34.5863 60.6839 34.693 60.4115L33.0347 60.6152C33.0228 60.6627 32.9606 60.8165 32.8483 61.0767C32.7358 61.3372 32.6028 61.6359 32.4489 61.9732C32.2951 62.3105 32.141 62.6567 31.9874 63.0118C31.9034 63.2059 31.8298 63.3787 31.7635 63.5374C31.7348 63.5512 31.7085 63.5632 31.6767 63.58C31.5641 63.6394 31.4461 63.7015 31.3218 63.7664C31.1975 63.8315 31.07 63.8879 30.94 63.9349C30.8096 63.9823 30.6853 64.006 30.5672 64.006C30.5078 64.006 30.4457 64.0003 30.3808 63.9883C30.3157 63.9766 30.2832 63.9292 30.2832 63.8462V63.793C30.2832 63.7694 30.3008 63.7281 30.3364 63.6687C30.348 63.6332 30.3925 63.5265 30.4696 63.3491C30.5464 63.1716 30.6294 62.9763 30.7181 62.7633C30.8068 62.5503 30.8983 62.3343 30.9932 62.1154C31.0879 61.8964 31.1647 61.7219 31.2241 61.5917C31.3186 61.367 31.366 61.1833 31.366 61.0411C31.366 60.9586 31.3601 60.8992 31.3484 60.8637C31.2773 60.5679 31.0524 60.4198 30.6736 60.4198C30.3778 60.4198 30.0938 60.5147 29.8216 60.7039C29.5492 60.8933 29.289 61.1185 29.0405 61.3784C28.7919 61.6389 28.558 61.9083 28.3391 62.1862C28.1201 62.4645 27.9101 62.6984 27.7091 62.8876C27.756 62.6865 27.8068 62.4854 27.8599 62.2838C27.9131 62.0828 27.9397 61.8755 27.9397 61.6625C27.9397 61.4378 27.9012 61.2188 27.8244 61.0056C27.7474 60.7926 27.6497 60.5858 27.5313 60.3843C27.425 60.4082 26.0546 60.6654 26.0073 60.6769C26.2203 61.0204 26.3774 61.4733 26.3774 61.8755C26.3774 62.0771 26.3421 62.2838 26.271 62.4969L25.9685 63.3089C25.9166 63.3305 25.8662 63.3511 25.8095 63.3756C25.6318 63.4527 25.4454 63.5327 25.2503 63.6155C25.0549 63.6983 24.8655 63.7783 24.6821 63.8551C24.4984 63.9321 24.3476 63.9883 24.2293 64.0236L24.0874 64.0591C23.815 64.1303 23.5992 64.0947 23.4394 63.9528C23.2796 63.8106 23.2292 63.6215 23.2886 63.3846C23.3122 63.2544 23.3773 63.1244 23.4837 62.9939C23.5903 62.8639 23.7146 62.7307 23.8565 62.5945C23.9986 62.4586 24.1465 62.3256 24.3004 62.1951C24.4539 62.0651 24.5901 61.929 24.7087 61.7868C24.8862 61.5738 25.0104 61.3551 25.0815 61.1299C25.1526 60.9052 25.0872 60.7101 24.8862 60.5441C24.6968 60.3786 24.4719 60.2869 24.2116 60.2689C23.9511 60.2513 23.688 60.2779 23.4215 60.349C23.1554 60.4198 22.8979 60.5237 22.6493 60.6596C22.4008 60.7959 22.1995 60.9408 22.0459 61.0946C21.9865 61.1418 21.9007 61.2159 21.7884 61.3163C21.6758 61.4172 21.5515 61.5325 21.4156 61.6625C21.3845 61.6925 21.35 61.7255 21.3159 61.7579C21.3159 61.7842 21.5141 62.0208 21.5935 62.078C21.6348 62.0397 21.676 62.0008 21.7173 61.9645C21.8652 61.8342 22.0071 61.7159 22.1433 61.6093C22.2793 61.5027 22.4008 61.4202 22.5074 61.3608C22.661 61.278 22.8032 61.2338 22.9334 61.2275C23.0636 61.2218 23.1581 61.2427 23.2175 61.2897C23.3002 61.3727 23.3355 61.4704 23.3241 61.5827C23.3122 61.6953 23.2677 61.8166 23.1909 61.9466C23.1138 62.0771 23.0161 62.2071 22.8979 62.3373C22.7796 62.4675 22.661 62.5858 22.5429 62.6922C22.4125 62.7988 22.2765 62.9203 22.1346 63.056C21.9924 63.1923 21.8682 63.3344 21.7618 63.4823C21.6552 63.6304 21.5811 63.784 21.5398 63.9439C21.4981 64.1036 21.5133 64.2664 21.5841 64.4319C21.6433 64.5505 21.7528 64.6567 21.9127 64.7516C22.0725 64.8463 22.2526 64.8935 22.454 64.8935C22.6789 64.8935 22.969 64.8403 23.3241 64.7339C23.679 64.6273 24.0429 64.503 24.4157 64.3611C24.7885 64.219 25.1436 64.0743 25.4809 63.9262C25.5968 63.8755 25.6919 63.832 25.7903 63.7875L24.6376 66.882C24.5076 67.1659 24.4425 67.4678 24.4425 67.7872C24.4425 67.8228 24.4455 67.8611 24.4512 67.9028C24.4574 67.944 24.4601 67.9826 24.4601 68.0181C24.697 68.0062 24.9572 67.9853 25.2413 67.956C25.5254 67.9264 25.7677 67.8995 25.9693 67.8762C25.9927 67.651 26.0195 67.4589 26.0491 67.2991C26.0784 67.1393 26.1229 66.9765 26.1823 66.811L26.5906 65.6747C26.697 65.3553 26.8272 65.0148 26.9811 64.6539C27.1347 64.293 27.33 63.9704 27.5669 63.6863C27.5905 63.6627 27.6526 63.5949 27.7533 63.4823C27.8537 63.3699 27.9633 63.2427 28.0819 63.1005C28.1999 62.9586 28.3152 62.8165 28.4281 62.6745C28.5404 62.5324 28.6259 62.426 28.6853 62.3549C28.7444 62.2838 28.8275 62.1862 28.9338 62.0619C29.0405 61.9377 29.1469 61.8462 29.2534 61.7868C29.3126 61.7278 29.3601 61.6981 29.3956 61.6981C29.4665 61.6981 29.502 61.7455 29.502 61.8402C29.502 61.8521 29.499 61.8608 29.493 61.8668C29.4871 61.8728 29.4844 61.8874 29.4844 61.911C29.4605 61.9941 29.419 62.1036 29.3601 62.2396C29.3007 62.3758 29.2326 62.5237 29.1558 62.6832C29.0788 62.8431 28.9987 63.0091 28.9162 63.1805C28.8332 63.3521 28.7564 63.5149 28.6853 63.6687C28.5906 63.8936 28.5434 64.1066 28.5434 64.3077C28.5434 64.5326 28.6232 64.6718 28.783 64.725C28.9428 64.7782 29.1232 64.8048 29.3246 64.8048C29.502 64.8048 29.6735 64.7871 29.8393 64.7516C30.005 64.716 30.1706 64.6686 30.3364 64.6097C30.6085 64.4913 30.8836 64.3581 31.162 64.21C31.3128 64.13 31.4483 64.0588 31.5905 63.9837C31.5621 64.0787 31.5435 64.1881 31.5435 64.3256C31.5435 64.4794 31.5763 64.6156 31.6412 64.7339C31.706 64.852 31.8335 64.9114 32.0229 64.9114C32.2595 64.9114 32.4579 64.8815 32.6177 64.8226C32.7775 64.7632 32.9577 64.6745 33.159 64.5562C33.23 64.5207 33.3633 64.4382 33.5586 64.3077C33.7538 64.1777 33.9608 64.0355 34.18 63.8817C34.3987 63.7281 34.606 63.583 34.8014 63.4468C34.9965 63.3108 35.1297 63.2131 35.2007 63.1537C35.1652 63.2487 35.1177 63.364 35.0585 63.4999C34.9991 63.6362 34.9371 63.7751 34.8722 63.9172C34.8071 64.0591 34.742 64.1986 34.6771 64.3343C34.6117 64.4705 34.5615 64.5861 34.5259 64.6805C34.4907 64.8107 34.3664 64.9231 34.1531 65.0178C33.9402 65.1125 33.7508 65.2012 33.5852 65.2842C33.3248 65.4142 33.0703 65.5621 32.8217 65.7281C32.5732 65.8936 32.3513 66.083 32.1562 66.296C31.9608 66.5092 31.8037 66.7426 31.6857 66.9974C31.5673 67.2516 31.5079 67.5267 31.5079 67.8228C31.5079 67.9649 31.5378 68.086 31.5969 68.1869C31.6561 68.2873 31.7624 68.3377 31.9163 68.3377C32.1649 68.3377 32.4251 68.3022 32.6975 68.2311C32.9696 68.16 33.2328 68.0626 33.4876 67.9383C33.7418 67.8141 33.9816 67.6719 34.2066 67.5121C34.4313 67.3523 34.6326 67.1838 34.81 67.0063C34.9758 66.8403 35.1237 66.6246 35.2539 66.3581C35.3842 66.092 35.5084 65.8581 35.6267 65.657C35.7095 65.4795 35.8012 65.2723 35.9019 65.0357C36.0022 64.7988 36.0763 64.639 36.1238 64.5562C36.479 64.4854 36.8366 64.3671 37.198 64.2013C37.4249 64.0971 37.6138 64.006 37.7728 63.9252L37.3486 64.8758C37.4197 64.8758 37.535 64.8639 37.6948 64.8403C37.8546 64.8164 38.0234 64.7928 38.2008 64.7692C38.3783 64.7454 38.547 64.725 38.7068 64.7071C38.8667 64.6894 38.982 64.6745 39.0531 64.6629C39.112 64.5207 39.1888 64.3937 39.2837 64.2811C39.3784 64.1688 39.4967 64.0475 39.6389 63.9172C40.0529 63.574 40.4642 63.2131 40.8726 62.8344C41.2809 62.4556 41.6921 62.0887 42.1063 61.7336C42.1891 61.6508 42.2602 61.6093 42.3196 61.6093C42.3785 61.6093 42.4083 61.6449 42.4083 61.7159C42.4083 61.7632 42.3904 61.8285 42.3549 61.911C42.2366 62.2426 42.0825 62.5679 41.8934 62.8876C41.704 63.2072 41.5441 63.5504 41.4142 63.9172C41.3548 64.083 41.3254 64.2488 41.3254 64.4143C41.3254 64.6156 41.4228 64.7426 41.6182 64.7961C41.8136 64.8493 42 64.8758 42.1774 64.8758C42.2366 64.8758 42.4083 64.8403 42.6924 64.7692C42.9762 64.6984 43.2839 64.598 43.6155 64.4675C43.9587 64.3256 44.2425 64.1954 44.4677 64.0771C44.4682 64.0767 44.4687 64.0764 44.4694 64.076L44.1125 64.8758C44.1836 64.8758 44.2989 64.8639 44.4588 64.8403C44.6186 64.8164 44.7871 64.7928 44.9646 64.7692C45.1422 64.7454 45.3107 64.725 45.4706 64.7071C45.6304 64.6894 45.7457 64.6745 45.8168 64.6629C45.8759 64.5207 45.9527 64.3937 46.0477 64.2811C46.1421 64.1688 46.2606 64.0475 46.4025 63.9172C46.8169 63.574 47.2282 63.2131 47.6366 62.8344C48.0446 62.4556 48.456 62.0887 48.8703 61.7336C48.9531 61.6508 49.0239 61.6093 49.0833 61.6093C49.1425 61.6093 49.172 61.6449 49.172 61.7159C49.172 61.7632 49.1544 61.8285 49.1189 61.911C49.0003 62.2426 48.8464 62.5679 48.6573 62.8876C48.4679 63.2072 48.3081 63.5504 48.1779 63.9172C48.1185 64.083 48.0891 64.2488 48.0891 64.4143C48.0891 64.6156 48.1868 64.7426 48.3822 64.7961C48.5773 64.8493 48.7637 64.8758 48.9414 64.8758C49.0003 64.8758 49.172 64.8403 49.4561 64.7692C49.7402 64.6984 50.0479 64.598 50.3792 64.4675C50.7224 64.3256 51.0065 64.1954 51.2314 64.0771C51.4561 63.9588 51.6335 63.8581 51.7641 63.7751V63.4557C51.4916 63.574 51.2105 63.6983 50.9207 63.8285ZM33.958 65.9587C33.8514 66.1834 33.7331 66.4498 33.6029 66.7578C33.579 66.8167 33.5318 66.8997 33.461 67.0063C33.3899 67.1127 33.3101 67.2193 33.2211 67.3257C33.1324 67.4323 33.0437 67.5238 32.9549 67.6008C32.8662 67.6779 32.7862 67.7164 32.7153 67.7164C32.6559 67.7164 32.6147 67.6898 32.5911 67.6364C32.5672 67.5832 32.5555 67.5267 32.5555 67.4678C32.5555 67.0888 32.6736 66.725 32.9104 66.376C33.1471 66.0268 33.4254 65.7634 33.7451 65.5859C33.7684 65.574 33.804 65.5563 33.8514 65.5327C33.8986 65.5089 33.9518 65.4853 34.0112 65.4617C34.0704 65.4261 34.1355 65.3966 34.2066 65.3729C34.1472 65.5385 34.0644 65.7338 33.958 65.9587Z" fill="#2D78CD"/>
<path d="M33.4204 43.4657C31.8729 43.4657 30.5251 43.3332 29.0506 43.036L27.8929 42.8025V35.0038C23.2267 32.9066 19.9854 28.3475 19.9854 23.0741C19.9854 15.8185 26.1206 9.91566 33.662 9.91566C36.94 9.91566 39.9346 10.9135 42.3221 12.8012C42.9472 13.2953 43.0533 14.2028 42.5591 14.8278C42.0648 15.4528 41.1574 15.5589 40.5324 15.0648C38.6595 13.5841 36.2838 12.8014 33.662 12.8014C27.7119 12.8014 22.8711 17.4096 22.8711 23.0741C22.8711 26.7202 24.8767 29.9287 27.8929 31.7523V18.0984L29.1704 17.9509C31.0068 17.739 32.3429 17.6975 34.0301 17.6975C41.4744 17.6975 46.0988 21.2176 46.0988 26.8838C46.0988 29.7851 44.6983 32.3067 42.1553 33.9842C39.9573 35.4341 36.9409 36.2325 33.662 36.2325C32.6733 36.2325 31.7083 36.131 30.7786 35.9383V40.4053C31.6374 40.5248 32.4866 40.58 33.4204 40.58C43.7295 40.58 52.1166 32.7263 52.1166 23.0726C52.1166 13.4191 43.7295 5.56539 33.4204 5.56539C32.2385 5.56539 31.388 5.62963 30.3871 5.7946C29.6012 5.9247 28.8584 5.39197 28.7288 4.60561C28.5992 3.81935 29.1315 3.07692 29.9178 2.94737C31.0712 2.75716 32.086 2.67969 33.4204 2.67969C45.3206 2.67969 55.0023 11.8279 55.0023 23.0726C55.0023 34.3175 45.3206 43.4657 33.4204 43.4657ZM30.7786 32.9745C31.6969 33.2173 32.6637 33.3468 33.662 33.3468C38.4161 33.3468 43.2131 31.3484 43.2131 26.8838C43.2131 22.9386 39.7802 20.5832 34.0301 20.5832C32.8698 20.5832 31.8891 20.6039 30.7786 20.6922V32.9745Z" fill="#2D78CD"/>
</g>
<path d="M82.7666 19.5974H86.4044L90.4332 30.6677L94.4623 19.5974H98.1005V34.0706H95.4208V23.2352L91.5678 34.0706H89.2988L85.4459 23.2352V34.0706H82.7666V19.5974Z" fill="white"/>
<path d="M103.447 19.5974V29.7676L109.901 19.5974H112.581V34.0706H109.901V23.9006L103.447 34.0706H100.768V19.5974H103.447Z" fill="white"/>
<path d="M115.247 19.5974H117.926V25.8756L122.424 19.5974H125.632L120.175 26.7163L125.632 34.0706H122.424L117.926 27.7338V34.0706H115.247V19.5974Z" fill="white"/>
<path d="M127.377 19.5974H131.426C136.062 19.5974 136.609 22.7461 136.609 24.1154C136.609 25.9342 135.631 28.5939 131.426 28.5939H130.057V34.0706H127.377V19.5974ZM130.057 25.993H131.641C132.345 25.993 133.93 25.8756 133.93 24.096C133.93 22.3158 132.345 22.1985 131.641 22.1985H130.057V25.993Z" fill="white"/>
<path d="M152.847 26.9125C152.847 31.0975 149.522 34.423 145.219 34.423C140.916 34.423 137.592 31.0975 137.592 26.9125C137.592 22.7269 140.897 19.3433 145.219 19.3433C149.542 19.3433 152.847 22.7269 152.847 26.9125ZM150.168 26.8538C150.168 24.1548 148.055 21.9441 145.219 21.9441C142.383 21.9441 140.271 24.1548 140.271 26.8538C140.271 29.5914 142.403 31.8213 145.2 31.8213C148.075 31.8213 150.168 29.5528 150.168 26.8538Z" fill="white"/>
<path d="M160.52 32.7604C156.746 32.7209 154.027 30.12 154.027 26.5016C154.027 22.8831 156.746 20.2822 160.52 20.2428V18.4238H163.2V20.2428C166.974 20.2822 169.693 22.8831 169.693 26.5016C169.693 30.12 166.974 32.7209 163.2 32.7604V34.7947H160.52V32.7604ZM160.52 22.8444C158.154 22.8244 156.706 24.5266 156.706 26.5016C156.706 28.4773 158.154 30.1787 160.52 30.1593V22.8444ZM163.2 30.1593C165.566 30.1787 167.014 28.4773 167.014 26.5016C167.014 24.5266 165.566 22.8244 163.2 22.8444V30.1593Z" fill="white"/>
<path d="M174.277 19.5974V29.7676L180.731 19.5974H183.411V34.0706H180.731V23.9006L174.277 34.0706H171.597V19.5974H174.277Z" fill="white"/>
<path d="M186.076 19.5974H188.755V25.4065H194.036V19.5974H196.716V34.0706H194.036V28.0074H188.755V34.0706H186.076V19.5974Z" fill="white"/>
<path d="M204.212 19.5974H206.363L212.387 34.0706H209.434L207.947 30.3348H202.628L201.141 34.0706H198.188L204.212 19.5974ZM206.931 27.7338L205.287 23.5088L203.645 27.7338H206.931Z" fill="white"/>
<path d="M213.86 19.5974H216.539V25.4065H221.82V19.5974H224.5V34.0706H221.82V28.0074H216.539V34.0706H213.86V19.5974Z" fill="white"/>
<path d="M237.648 23.7437C236.924 22.8243 235.731 21.9441 234.01 21.9441C231.116 21.9441 229.101 24.2915 229.101 26.8337C229.101 29.5528 231.252 31.8213 234.03 31.8213C235.321 31.8213 236.611 31.313 237.511 30.1393H240.621C239.428 32.6821 237.1 34.423 233.951 34.423C228.886 34.423 226.422 30.1592 226.422 26.8337C226.422 23.6069 228.866 19.3433 233.991 19.3433C236.983 19.3433 239.486 20.9667 240.699 23.7437H237.648Z" fill="white"/>
<path d="M256.939 26.9125C256.939 31.0975 253.614 34.423 249.312 34.423C245.008 34.423 241.684 31.0975 241.684 26.9125C241.684 22.7269 244.989 19.3433 249.312 19.3433C253.634 19.3433 256.939 22.7269 256.939 26.9125ZM254.26 26.8538C254.26 24.1548 252.147 21.9441 249.312 21.9441C246.475 21.9441 244.363 24.1548 244.363 26.8538C244.363 29.5914 246.495 31.8213 249.292 31.8213C252.167 31.8213 254.26 29.5528 254.26 26.8538Z" fill="white"/>
<path d="M258.862 19.5974H262.344C263.243 19.5974 267.37 19.6168 267.37 23.4114C267.37 25.2104 266.177 25.9536 265.786 26.1691C267.351 26.6969 268.25 28.0467 268.25 29.6701C268.25 31.7627 267.116 34.0706 262.481 34.0706H258.862V19.5974ZM262.794 25.1716C264.554 25.1716 264.691 24.0566 264.691 23.6849C264.691 22.2771 263.38 22.1985 262.794 22.1985H261.542V25.1716H262.794ZM263.283 31.469C263.596 31.469 265.571 31.4497 265.571 29.6502C265.571 29.103 265.376 27.7726 263.283 27.7726H261.542V31.469H263.283Z" fill="white"/>
<path d="M275.042 19.5974H277.193L283.217 34.0706H280.264L278.777 30.3348H273.457L271.971 34.0706H269.017L275.042 19.5974ZM277.76 27.7338L276.117 23.5088L274.474 27.7338H277.76Z" fill="white"/>
<path d="M293.764 34.0706H291.085V28.4571H291.046L287.173 34.0706H284.044L288.034 28.7313C285.804 28.4571 284.142 26.8538 284.142 24.3302C284.142 22.903 284.709 19.5974 289.579 19.5974H293.764V34.0706ZM289.501 22.1985C287.369 22.1985 286.821 23.294 286.821 24.3503C286.821 25.4065 287.369 26.5015 289.501 26.5015H291.085V22.1985H289.501Z" fill="white"/>
<path d="M82.7666 37.4451H85.4459V43.7231L89.9444 37.4451H93.1518L87.6952 44.5639L93.1518 51.9182H89.9444L85.4459 45.5814V51.9182H82.7666V37.4451Z" fill="white"/>
<path d="M122.539 44.7602C122.539 48.9451 119.214 52.2707 114.911 52.2707C110.608 52.2707 107.283 48.9451 107.283 44.7602C107.283 40.5745 110.588 37.1909 114.911 37.1909C119.233 37.1909 122.539 40.5745 122.539 44.7602ZM119.859 44.7014C119.859 42.0024 117.747 39.7919 114.911 39.7919C112.075 39.7919 109.962 42.0024 109.962 44.7014C109.962 47.4392 112.094 49.6691 114.891 49.6691C117.767 49.6691 119.859 47.4004 119.859 44.7014Z" fill="white"/>
<path d="M138.844 37.4451H142.481L146.51 48.5153L150.539 37.4451H154.178V51.9182H151.498V41.0829L147.645 51.9182H145.376L141.523 41.0829V51.9182H138.844V37.4451Z" fill="white"/>
<path d="M171.226 37.4451H181.866V51.9182H179.186V40.0459H173.906V51.9182H171.226V37.4451Z" fill="white"/>
<path d="M203.743 37.4451H205.895L211.919 51.9182H208.965L207.479 48.1823H202.159L200.673 51.9182H197.719L203.743 37.4451ZM206.462 45.5814L204.819 41.3564L203.176 45.5814H206.462Z" fill="white"/>
<path d="M227.987 37.4451H230.666V43.2541H235.947V37.4451H238.626V51.9182H235.947V45.855H230.666V51.9182H227.987V37.4451Z" fill="white"/>
<path d="M258.508 37.4451V47.6152L264.963 37.4451H267.642V51.9182H264.963V41.7481L258.508 51.9182H255.829V37.4451H258.508Z" fill="white"/>
<path d="M293.764 51.9182H291.085V46.3047H291.046L287.173 51.9182H284.044L288.033 46.579C285.804 46.3047 284.141 44.7013 284.141 42.1779C284.141 40.7505 284.709 37.4451 289.579 37.4451H293.764V51.9182ZM289.5 40.0459C287.368 40.0459 286.821 41.1416 286.821 42.1978C286.821 43.2541 287.368 44.349 289.5 44.349H291.085V40.0459H289.5Z" fill="white"/>
<defs>
<clipPath id="clip0">
<rect width="73.7665" height="70.6929" fill="white"/>
</clipPath>
</defs>
</svg>
