<svg width="294" height="72" viewBox="0 0 294 72" fill="none" xmlns="http://www.w3.org/2000/svg">
<g clip-path="url(#clip0)">
<path d="M37.5205 71.455C57.0715 71.455 72.9207 55.6058 72.9207 36.0548C72.9207 16.5038 57.0715 0.654541 37.5205 0.654541C17.9695 0.654541 2.12024 16.5038 2.12024 36.0548C2.12024 55.6058 17.9695 71.455 37.5205 71.455Z" fill="#FF0000"/>
<path d="M18.8938 46.8064H22.1977C25.9804 46.8064 26.4272 49.376 26.4272 50.4935C26.4272 51.9777 25.6292 54.1484 22.1977 54.1484H21.0804V58.6174H18.8938V46.8064ZM21.0804 52.0257H22.3732C22.9478 52.0257 24.2406 51.9297 24.2406 50.4773C24.2406 49.0251 22.9478 48.9292 22.3732 48.9292H21.0804V52.0257Z" fill="white"/>
<path d="M36.5459 54.2105C36.5459 56.7801 34.5508 58.9029 31.8534 58.9029C29.156 58.9029 27.1609 56.7801 27.1609 54.2105C27.1609 51.6247 29.1402 49.4861 31.8534 49.4861C34.5667 49.4861 36.5459 51.6247 36.5459 54.2105ZM29.2838 54.2105C29.2838 55.6468 30.2892 56.8918 31.8534 56.8918C33.4176 56.8918 34.4231 55.6468 34.4231 54.2105C34.4231 52.774 33.4335 51.497 31.8534 51.497C30.2734 51.497 29.2838 52.774 29.2838 54.2105Z" fill="white"/>
<path d="M46.6006 50.1885C46.01 49.4384 45.0364 48.7202 43.6319 48.7202C41.2697 48.7202 39.6257 50.6357 39.6257 52.7104C39.6257 54.9289 41.3814 56.7805 43.6478 56.7805C44.7012 56.7805 45.7547 56.3654 46.4888 55.4078H49.0266C48.053 57.4826 46.1537 58.9033 43.5841 58.9033C39.4501 58.9033 37.4391 55.4237 37.4391 52.7104C37.4391 50.0769 39.4342 46.5974 43.6159 46.5974C46.0579 46.5974 48.1009 47.9221 49.0904 50.1885H46.6006Z" fill="white"/>
<path d="M51.6755 48.9292H49.4889V46.8064H56.0488V48.9292H53.8622V58.6174H51.6755V48.9292Z" fill="white"/>
<path d="M50.9207 64.4828C50.6307 64.6131 50.3439 64.7077 50.0598 64.7669C49.9532 64.7669 49.9 64.7134 49.9 64.6071C49.9 64.5715 49.9176 64.5005 49.9532 64.3941C49.9887 64.2994 50.0479 64.1692 50.1307 64.0034C50.2134 63.8378 50.2994 63.6661 50.3881 63.4887C50.4768 63.311 50.5596 63.1424 50.6367 62.9826C50.7135 62.8228 50.7699 62.7075 50.8054 62.6364C50.841 62.5417 50.8999 62.3969 50.9829 62.2015C51.0656 62.0061 51.1071 61.814 51.1071 61.6246C51.1071 61.4469 51.042 61.305 50.9118 61.1984C50.7816 61.092 50.6337 61.0386 50.4682 61.0386C50.2785 61.0386 50.0953 61.0714 49.9176 61.1363C49.7402 61.2016 49.5804 61.2871 49.4385 61.3937C49.2488 61.5476 49.0152 61.7429 48.7371 61.9795C48.459 62.2164 48.1719 62.459 47.8762 62.7075C47.5801 62.956 47.302 63.1986 47.0418 63.4352C46.7813 63.6721 46.5741 63.8615 46.4205 64.0034C46.6215 63.5302 46.8315 63.0507 47.0505 62.5653C47.2695 62.0802 47.4971 61.5712 47.734 61.0386L46.0298 61.2339L44.6839 64.2498C44.5097 64.3266 44.338 64.4014 44.157 64.4828C43.8667 64.6131 43.5799 64.7077 43.2958 64.7669C43.1895 64.7669 43.1361 64.7134 43.1361 64.6071C43.1361 64.5715 43.1539 64.5005 43.1895 64.3941C43.225 64.2994 43.2839 64.1692 43.3669 64.0034C43.4497 63.8378 43.5357 63.6661 43.6244 63.4887C43.7132 63.311 43.7957 63.1424 43.8729 62.9826C43.9498 62.8228 44.0059 62.7075 44.0415 62.6364C44.077 62.5417 44.1361 62.3969 44.2192 62.2015C44.3017 62.0061 44.3434 61.814 44.3434 61.6246C44.3434 61.4469 44.2781 61.305 44.1481 61.1984C44.0176 61.092 43.8697 61.0386 43.7042 61.0386C43.5148 61.0386 43.3314 61.0714 43.1539 61.1363C42.9762 61.2016 42.8167 61.2871 42.6745 61.3937C42.4851 61.5476 42.2513 61.7429 41.9734 61.9795C41.695 62.2164 41.4079 62.459 41.1122 62.7075C40.8164 62.956 40.5381 63.1986 40.2778 63.4352C40.0174 63.6721 39.8104 63.8615 39.6565 64.0034C39.8576 63.5302 40.0676 63.0507 40.2868 62.5653C40.5058 62.0802 40.7334 61.5712 40.9703 61.0386L39.266 61.2339L37.9672 64.1444C37.8899 64.1879 37.8051 64.2323 37.7037 64.2785C37.5618 64.3438 37.4048 64.409 37.2333 64.4738C37.0618 64.5389 36.893 64.5981 36.7275 64.6513C36.5615 64.7047 36.4196 64.7433 36.3012 64.7669C36.5379 64.2698 36.7631 63.7697 36.976 63.2667C37.189 62.7637 37.7201 61.6398 37.9453 61.1427C37.8623 61.1546 36.4563 61.3772 36.3152 61.411C36.3032 61.4466 35.8932 62.2902 35.8576 62.3789C35.8221 62.4677 35.7776 62.5653 35.7244 62.672C35.6712 62.7784 35.6178 62.8822 35.5646 62.9826C35.5114 63.0833 35.461 63.1574 35.4137 63.2046C35.3782 63.2401 35.3101 63.2963 35.2094 63.3731C35.1088 63.4504 35.0054 63.5272 34.8988 63.604C34.7924 63.681 34.6917 63.7548 34.597 63.8259C34.5021 63.897 34.4432 63.9385 34.4196 63.9502L34.3664 63.9857C34.2834 64.0449 34.171 64.116 34.0289 64.1987C33.887 64.2818 33.7508 64.3526 33.6208 64.4117C33.5733 64.4356 33.5348 64.4532 33.5052 64.4649C33.4756 64.4769 33.449 64.4828 33.4254 64.4828C33.3543 64.4828 33.3188 64.4413 33.3188 64.3586C33.3188 64.2994 33.3367 64.2196 33.3722 64.1187C33.4075 64.0183 33.4431 63.9206 33.4786 63.8259C33.5377 63.6721 33.6176 63.4916 33.7182 63.2844C33.8186 63.0776 33.9253 62.8524 34.0378 62.6098C34.1502 62.3672 34.2625 62.1127 34.3751 61.8463C34.4874 61.5802 34.5863 61.3382 34.693 61.0658L33.0347 61.2695C33.0228 61.3169 32.9606 61.4708 32.8483 61.731C32.7358 61.9915 32.6028 62.2902 32.4489 62.6275C32.2951 62.9648 32.141 63.311 31.9874 63.6661C31.9034 63.8602 31.8298 64.033 31.7635 64.1917C31.7348 64.2055 31.7085 64.2175 31.6767 64.2343C31.5641 64.2937 31.4461 64.3558 31.3218 64.4207C31.1975 64.4858 31.07 64.5422 30.94 64.5892C30.8096 64.6366 30.6853 64.6602 30.5672 64.6602C30.5078 64.6602 30.4457 64.6545 30.3808 64.6426C30.3157 64.6309 30.2832 64.5835 30.2832 64.5005V64.4473C30.2832 64.4237 30.3008 64.3824 30.3364 64.323C30.348 64.2875 30.3925 64.1808 30.4696 64.0034C30.5464 63.8259 30.6294 63.6306 30.7181 63.4176C30.8068 63.2046 30.8983 62.9886 30.9932 62.7696C31.0879 62.5507 31.1647 62.3762 31.2241 62.246C31.3186 62.0213 31.366 61.8376 31.366 61.6954C31.366 61.6129 31.3601 61.5535 31.3484 61.518C31.2773 61.2222 31.0524 61.0741 30.6736 61.0741C30.3778 61.0741 30.0938 61.169 29.8216 61.3582C29.5492 61.5476 29.289 61.7728 29.0405 62.0327C28.7919 62.2932 28.558 62.5626 28.3391 62.8405C28.1201 63.1188 27.9101 63.3527 27.7091 63.5419C27.756 63.3408 27.8068 63.1397 27.8599 62.9381C27.9131 62.7371 27.9397 62.5298 27.9397 62.3168C27.9397 62.0921 27.9012 61.8731 27.8244 61.6599C27.7474 61.4469 27.6497 61.2401 27.5313 61.0386C27.425 61.0624 26.0546 61.3197 26.0073 61.3312C26.2203 61.6747 26.3774 62.1276 26.3774 62.5298C26.3774 62.7314 26.3421 62.9381 26.271 63.1512L25.9685 63.9632C25.9166 63.9848 25.8662 64.0054 25.8095 64.0299C25.6318 64.107 25.4454 64.187 25.2503 64.2698C25.0549 64.3526 24.8655 64.4326 24.6821 64.5094C24.4984 64.5864 24.3476 64.6426 24.2293 64.6779L24.0874 64.7134C23.815 64.7845 23.5992 64.749 23.4394 64.6071C23.2796 64.4649 23.2292 64.2758 23.2886 64.0389C23.3122 63.9087 23.3773 63.7787 23.4837 63.6482C23.5903 63.5182 23.7146 63.385 23.8565 63.2488C23.9986 63.1129 24.1465 62.9799 24.3004 62.8494C24.4539 62.7194 24.5901 62.5833 24.7087 62.4411C24.8862 62.2281 25.0104 62.0093 25.0815 61.7842C25.1526 61.5595 25.0872 61.3644 24.8862 61.1984C24.6968 61.0329 24.4719 60.9411 24.2116 60.9232C23.9511 60.9056 23.688 60.9322 23.4215 61.0033C23.1554 61.0741 22.8979 61.178 22.6493 61.3139C22.4008 61.4502 22.1995 61.5951 22.0459 61.7489C21.9865 61.7961 21.9007 61.8702 21.7884 61.9706C21.6758 62.0715 21.5515 62.1868 21.4156 62.3168C21.3845 62.3468 21.35 62.3798 21.3159 62.4122C21.3159 62.4385 21.5141 62.6751 21.5935 62.7323C21.6348 62.694 21.676 62.6551 21.7173 62.6188C21.8652 62.4885 22.0071 62.3702 22.1433 62.2636C22.2793 62.157 22.4008 62.0745 22.5074 62.0151C22.661 61.9323 22.8032 61.8881 22.9334 61.8818C23.0636 61.8761 23.1581 61.897 23.2175 61.944C23.3002 62.027 23.3355 62.1247 23.3241 62.237C23.3122 62.3496 23.2677 62.4709 23.1909 62.6009C23.1138 62.7314 23.0161 62.8614 22.8979 62.9916C22.7796 63.1218 22.661 63.2401 22.5429 63.3465C22.4125 63.4531 22.2765 63.5746 22.1346 63.7103C21.9924 63.8466 21.8682 63.9887 21.7618 64.1366C21.6552 64.2847 21.5811 64.4383 21.5398 64.5981C21.4981 64.7579 21.5133 64.9207 21.5841 65.0862C21.6433 65.2048 21.7528 65.311 21.9127 65.4059C22.0725 65.5006 22.2526 65.5478 22.454 65.5478C22.6789 65.5478 22.969 65.4946 23.3241 65.3882C23.679 65.2816 24.0429 65.1573 24.4157 65.0154C24.7885 64.8733 25.1436 64.7286 25.4809 64.5805C25.5968 64.5298 25.6919 64.4863 25.7903 64.4418L24.6376 67.5363C24.5076 67.8202 24.4425 68.1221 24.4425 68.4415C24.4425 68.4771 24.4455 68.5154 24.4512 68.5571C24.4574 68.5983 24.4601 68.6368 24.4601 68.6724C24.697 68.6605 24.9572 68.6396 25.2413 68.6103C25.5254 68.5807 25.7677 68.5538 25.9693 68.5305C25.9927 68.3053 26.0195 68.1132 26.0491 67.9534C26.0784 67.7936 26.1229 67.6308 26.1823 67.4653L26.5906 66.329C26.697 66.0096 26.8272 65.6691 26.9811 65.3082C27.1347 64.9473 27.33 64.6247 27.5669 64.3406C27.5905 64.317 27.6526 64.2492 27.7533 64.1366C27.8537 64.0242 27.9633 63.897 28.0819 63.7548C28.1999 63.6129 28.3152 63.4708 28.4281 63.3288C28.5404 63.1867 28.6259 63.0803 28.6853 63.0092C28.7444 62.9381 28.8275 62.8405 28.9338 62.7162C29.0405 62.592 29.1469 62.5005 29.2534 62.4411C29.3126 62.3821 29.3601 62.3524 29.3956 62.3524C29.4665 62.3524 29.502 62.3998 29.502 62.4945C29.502 62.5064 29.499 62.5151 29.493 62.5211C29.4871 62.5271 29.4844 62.5417 29.4844 62.5653C29.4605 62.6484 29.419 62.7579 29.3601 62.8939C29.3007 63.0301 29.2326 63.178 29.1558 63.3375C29.0788 63.4974 28.9987 63.6634 28.9162 63.8348C28.8332 64.0064 28.7564 64.1692 28.6853 64.323C28.5906 64.5479 28.5434 64.7609 28.5434 64.962C28.5434 65.1869 28.6232 65.3261 28.783 65.3793C28.9428 65.4325 29.1232 65.4591 29.3246 65.4591C29.502 65.4591 29.6735 65.4414 29.8393 65.4059C30.005 65.3703 30.1706 65.3229 30.3364 65.264C30.6085 65.1456 30.8836 65.0124 31.162 64.8643C31.3128 64.7843 31.4483 64.7131 31.5905 64.638C31.5621 64.733 31.5435 64.8424 31.5435 64.9799C31.5435 65.1337 31.5763 65.2699 31.6412 65.3882C31.706 65.5063 31.8335 65.5657 32.0229 65.5657C32.2595 65.5657 32.4579 65.5358 32.6177 65.4769C32.7775 65.4175 32.9577 65.3288 33.159 65.2105C33.23 65.175 33.3633 65.0925 33.5586 64.962C33.7538 64.832 33.9608 64.6898 34.18 64.536C34.3987 64.3824 34.606 64.2373 34.8014 64.1011C34.9965 63.9651 35.1297 63.8674 35.2007 63.808C35.1652 63.9029 35.1177 64.0183 35.0585 64.1542C34.9991 64.2905 34.9371 64.4294 34.8722 64.5715C34.8071 64.7134 34.742 64.8529 34.6771 64.9886C34.6117 65.1248 34.5615 65.2404 34.5259 65.3348C34.4907 65.465 34.3664 65.5774 34.1531 65.672C33.9402 65.7668 33.7508 65.8555 33.5852 65.9385C33.3248 66.0685 33.0703 66.2164 32.8217 66.3824C32.5732 66.5479 32.3513 66.7373 32.1562 66.9503C31.9608 67.1635 31.8037 67.3969 31.6857 67.6517C31.5673 67.9059 31.5079 68.181 31.5079 68.4771C31.5079 68.6192 31.5378 68.7403 31.5969 68.8412C31.6561 68.9416 31.7624 68.992 31.9163 68.992C32.1649 68.992 32.4251 68.9565 32.6975 68.8854C32.9696 68.8143 33.2328 68.7169 33.4876 68.5926C33.7418 68.4684 33.9816 68.3262 34.2066 68.1664C34.4313 68.0065 34.6326 67.8381 34.81 67.6606C34.9758 67.4946 35.1237 67.2789 35.2539 67.0124C35.3842 66.7463 35.5084 66.5124 35.6267 66.3113C35.7095 66.1338 35.8012 65.9266 35.9019 65.69C36.0022 65.4531 36.0763 65.2933 36.1238 65.2105C36.479 65.1397 36.8366 65.0214 37.198 64.8556C37.4249 64.7514 37.6138 64.6602 37.7728 64.5795L37.3486 65.5301C37.4197 65.5301 37.535 65.5182 37.6948 65.4946C37.8546 65.4707 38.0234 65.4471 38.2008 65.4235C38.3783 65.3997 38.547 65.3793 38.7068 65.3614C38.8667 65.3437 38.982 65.3288 39.0531 65.3172C39.112 65.175 39.1888 65.048 39.2837 64.9354C39.3784 64.8231 39.4967 64.7018 39.6389 64.5715C40.0529 64.2283 40.4642 63.8674 40.8726 63.4887C41.2809 63.1099 41.6921 62.743 42.1063 62.3879C42.1891 62.3051 42.2602 62.2636 42.3196 62.2636C42.3785 62.2636 42.4083 62.2992 42.4083 62.3702C42.4083 62.4175 42.3904 62.4828 42.3549 62.5653C42.2366 62.8969 42.0825 63.2222 41.8934 63.5419C41.704 63.8615 41.5441 64.2047 41.4142 64.5715C41.3548 64.7373 41.3254 64.9031 41.3254 65.0686C41.3254 65.2699 41.4228 65.3969 41.6182 65.4504C41.8136 65.5036 42 65.5301 42.1774 65.5301C42.2366 65.5301 42.4083 65.4946 42.6924 65.4235C42.9762 65.3527 43.2839 65.2523 43.6155 65.1218C43.9587 64.9799 44.2425 64.8496 44.4677 64.7314C44.4682 64.7309 44.4687 64.7307 44.4694 64.7303L44.1125 65.5301C44.1836 65.5301 44.2989 65.5182 44.4588 65.4946C44.6186 65.4707 44.7871 65.4471 44.9646 65.4235C45.1422 65.3997 45.3107 65.3793 45.4706 65.3614C45.6304 65.3437 45.7457 65.3288 45.8168 65.3172C45.8759 65.175 45.9527 65.048 46.0477 64.9354C46.1421 64.8231 46.2606 64.7018 46.4025 64.5715C46.8169 64.2283 47.2282 63.8674 47.6366 63.4887C48.0446 63.1099 48.456 62.743 48.8703 62.3879C48.9531 62.3051 49.0239 62.2636 49.0833 62.2636C49.1425 62.2636 49.172 62.2992 49.172 62.3702C49.172 62.4175 49.1544 62.4828 49.1189 62.5653C49.0003 62.8969 48.8464 63.2222 48.6573 63.5419C48.4679 63.8615 48.3081 64.2047 48.1779 64.5715C48.1185 64.7373 48.0891 64.9031 48.0891 65.0686C48.0891 65.2699 48.1868 65.3969 48.3822 65.4504C48.5773 65.5036 48.7637 65.5301 48.9414 65.5301C49.0003 65.5301 49.172 65.4946 49.4561 65.4235C49.7402 65.3527 50.0479 65.2523 50.3792 65.1218C50.7224 64.9799 51.0065 64.8496 51.2314 64.7314C51.4561 64.6131 51.6335 64.5124 51.7641 64.4294V64.11C51.4916 64.2283 51.2105 64.3526 50.9207 64.4828ZM33.958 66.613C33.8514 66.8377 33.7331 67.1041 33.6029 67.4121C33.579 67.471 33.5318 67.554 33.461 67.6606C33.3899 67.767 33.3101 67.8736 33.2211 67.98C33.1324 68.0866 33.0437 68.1781 32.9549 68.2551C32.8662 68.3322 32.7862 68.3707 32.7153 68.3707C32.6559 68.3707 32.6147 68.3441 32.5911 68.2907C32.5672 68.2375 32.5555 68.181 32.5555 68.1221C32.5555 67.7431 32.6736 67.3793 32.9104 67.0303C33.1471 66.6811 33.4254 66.4177 33.7451 66.2402C33.7684 66.2283 33.804 66.2106 33.8514 66.187C33.8986 66.1632 33.9518 66.1396 34.0112 66.116C34.0704 66.0804 34.1355 66.0509 34.2066 66.0272C34.1472 66.1928 34.0644 66.3881 33.958 66.613Z" fill="white"/>
<path d="M33.4204 44.12C31.8729 44.12 30.5251 43.9875 29.0506 43.6903L27.8929 43.4568V35.6581C23.2267 33.5609 19.9854 29.0018 19.9854 23.7283C19.9854 16.4728 26.1206 10.57 33.662 10.57C36.94 10.57 39.9346 11.5678 42.3221 13.4555C42.9472 13.9496 43.0533 14.857 42.5591 15.4821C42.0648 16.1071 41.1574 16.2132 40.5324 15.719C38.6595 14.2384 36.2838 13.4557 33.662 13.4557C27.7119 13.4557 22.8711 18.0639 22.8711 23.7283C22.8711 27.3745 24.8767 30.583 27.8929 32.4066V18.7527L29.1704 18.6052C31.0068 18.3933 32.3429 18.3518 34.0301 18.3518C41.4744 18.3518 46.0988 21.8719 46.0988 27.538C46.0988 30.4394 44.6983 32.961 42.1553 34.6385C39.9573 36.0884 36.9409 36.8868 33.662 36.8868C32.6733 36.8868 31.7083 36.7853 30.7786 36.5926V41.0596C31.6374 41.1791 32.4866 41.2343 33.4204 41.2343C43.7295 41.2343 52.1166 33.3806 52.1166 23.7269C52.1166 14.0734 43.7295 6.21969 33.4204 6.21969C32.2385 6.21969 31.388 6.28393 30.3871 6.44889C29.6012 6.579 28.8584 6.04627 28.7288 5.25991C28.5992 4.47365 29.1315 3.73121 29.9178 3.60167C31.0712 3.41145 32.086 3.33398 33.4204 3.33398C45.3206 3.33398 55.0023 12.4822 55.0023 23.7269C55.0023 34.9718 45.3206 44.12 33.4204 44.12ZM30.7786 33.6288C31.6969 33.8715 32.6637 34.0011 33.662 34.0011C38.4161 34.0011 43.2131 32.0027 43.2131 27.538C43.2131 23.5929 39.7802 21.2375 34.0301 21.2375C32.8698 21.2375 31.8891 21.2582 30.7786 21.3465V33.6288Z" fill="white"/>
</g>
<path d="M83.0018 20.2515H86.6396L90.6684 31.3218L94.6976 20.2515H98.3358V34.7247H95.656V23.8893L91.803 34.7247H89.534L85.6812 23.8893V34.7247H83.0018V20.2515Z" fill="#7C7C7C"/>
<path d="M103.682 20.2515V30.4216L110.137 20.2515H112.816V34.7247H110.137V24.5546L103.682 34.7247H101.003V20.2515H103.682Z" fill="#7C7C7C"/>
<path d="M115.482 20.2515H118.161V26.5296L122.66 20.2515H125.867L120.41 27.3703L125.867 34.7247H122.66L118.161 28.3878V34.7247H115.482V20.2515Z" fill="#7C7C7C"/>
<path d="M127.613 20.2515H131.661C136.297 20.2515 136.844 23.4002 136.844 24.7694C136.844 26.5883 135.866 29.2479 131.661 29.2479H130.292V34.7247H127.613V20.2515ZM130.292 26.647H131.876C132.581 26.647 134.165 26.5296 134.165 24.75C134.165 22.9699 132.581 22.8525 131.876 22.8525H130.292V26.647Z" fill="#7C7C7C"/>
<path d="M153.082 27.5666C153.082 31.7515 149.757 35.0771 145.455 35.0771C141.152 35.0771 137.827 31.7515 137.827 27.5666C137.827 23.3809 141.132 19.9973 145.455 19.9973C149.777 19.9973 153.082 23.3809 153.082 27.5666ZM150.403 27.5078C150.403 24.8088 148.29 22.5982 145.455 22.5982C142.619 22.5982 140.506 24.8088 140.506 27.5078C140.506 30.2455 142.638 32.4754 145.435 32.4754C148.31 32.4754 150.403 30.2068 150.403 27.5078Z" fill="#7C7C7C"/>
<path d="M160.755 33.4144C156.981 33.3749 154.262 30.774 154.262 27.1556C154.262 23.5371 156.981 20.9362 160.755 20.8969V19.0779H163.435V20.8969C167.21 20.9362 169.928 23.5371 169.928 27.1556C169.928 30.774 167.21 33.3749 163.435 33.4144V35.4488H160.755V33.4144ZM160.755 23.4984C158.389 23.4785 156.941 25.1806 156.941 27.1556C156.941 29.1314 158.389 30.8328 160.755 30.8134V23.4984ZM163.435 30.8134C165.802 30.8328 167.249 29.1314 167.249 27.1556C167.249 25.1806 165.802 23.4785 163.435 23.4984V30.8134Z" fill="#7C7C7C"/>
<path d="M174.512 20.2515V30.4216L180.966 20.2515H183.646V34.7247H180.966V24.5546L174.512 34.7247H171.832V20.2515H174.512Z" fill="#7C7C7C"/>
<path d="M186.311 20.2515H188.991V26.0605H194.271V20.2515H196.951V34.7247H194.271V28.6614H188.991V34.7247H186.311V20.2515Z" fill="#7C7C7C"/>
<path d="M204.447 20.2515H206.599L212.622 34.7247H209.669L208.183 30.9889H202.863L201.376 34.7247H198.423L204.447 20.2515ZM207.166 28.3878L205.523 24.1628L203.88 28.3878H207.166Z" fill="#7C7C7C"/>
<path d="M214.095 20.2515H216.775V26.0605H222.056V20.2515H224.735V34.7247H222.056V28.6614H216.775V34.7247H214.095V20.2515Z" fill="#7C7C7C"/>
<path d="M237.883 24.3978C237.16 23.4784 235.967 22.5982 234.245 22.5982C231.351 22.5982 229.336 24.9456 229.336 27.4877C229.336 30.2068 231.488 32.4754 234.265 32.4754C235.556 32.4754 236.847 31.967 237.746 30.7933H240.856C239.663 33.3361 237.336 35.0771 234.187 35.0771C229.121 35.0771 226.657 30.8133 226.657 27.4877C226.657 24.261 229.102 19.9973 234.226 19.9973C237.218 19.9973 239.722 21.6207 240.935 24.3978H237.883Z" fill="#7C7C7C"/>
<path d="M257.174 27.5666C257.174 31.7515 253.849 35.0771 249.547 35.0771C245.244 35.0771 241.919 31.7515 241.919 27.5666C241.919 23.3809 245.224 19.9973 249.547 19.9973C253.869 19.9973 257.174 23.3809 257.174 27.5666ZM254.495 27.5078C254.495 24.8088 252.383 22.5982 249.547 22.5982C246.711 22.5982 244.598 24.8088 244.598 27.5078C244.598 30.2455 246.73 32.4754 249.527 32.4754C252.402 32.4754 254.495 30.2068 254.495 27.5078Z" fill="#7C7C7C"/>
<path d="M259.097 20.2515H262.579C263.479 20.2515 267.605 20.2709 267.605 24.0654C267.605 25.8644 266.412 26.6077 266.021 26.8232C267.586 27.3509 268.486 28.7008 268.486 30.3242C268.486 32.4167 267.351 34.7247 262.716 34.7247H259.097V20.2515ZM263.029 25.8256C264.789 25.8256 264.926 24.7107 264.926 24.339C264.926 22.9312 263.616 22.8525 263.029 22.8525H261.777V25.8256H263.029ZM263.518 32.1231C263.831 32.1231 265.806 32.1038 265.806 30.3042C265.806 29.7571 265.611 28.4266 263.518 28.4266H261.777V32.1231H263.518Z" fill="#7C7C7C"/>
<path d="M275.277 20.2515H277.428L283.452 34.7247H280.499L279.012 30.9889H273.692L272.206 34.7247H269.252L275.277 20.2515ZM277.995 28.3878L276.352 24.1628L274.709 28.3878H277.995Z" fill="#7C7C7C"/>
<path d="M294 34.7247H291.32V29.1111H291.281L287.409 34.7247H284.279L288.269 29.3854C286.039 29.1111 284.377 27.5078 284.377 24.9843C284.377 23.5571 284.944 20.2515 289.814 20.2515H294V34.7247ZM289.736 22.8525C287.604 22.8525 287.057 23.948 287.057 25.0043C287.057 26.0605 287.604 27.1555 289.736 27.1555H291.32V22.8525H289.736Z" fill="#7C7C7C"/>
<path d="M83.0018 38.0991H85.6812V44.3772L90.1796 38.0991H93.3871L87.9304 45.218L93.3871 52.5723H90.1796L85.6812 46.2355V52.5723H83.0018V38.0991Z" fill="#7C7C7C"/>
<path d="M122.774 45.4142C122.774 49.5992 119.449 52.9247 115.146 52.9247C110.843 52.9247 107.518 49.5992 107.518 45.4142C107.518 41.2286 110.824 37.845 115.146 37.845C119.469 37.845 122.774 41.2286 122.774 45.4142ZM120.095 45.3555C120.095 42.6565 117.982 40.446 115.146 40.446C112.31 40.446 110.198 42.6565 110.198 45.3555C110.198 48.0933 112.33 50.3232 115.127 50.3232C118.002 50.3232 120.095 48.0545 120.095 45.3555Z" fill="#7C7C7C"/>
<path d="M139.079 38.0991H142.717L146.745 49.1694L150.775 38.0991H154.413V52.5723H151.733V41.7369L147.88 52.5723H145.611L141.758 41.7369V52.5723H139.079V38.0991Z" fill="#7C7C7C"/>
<path d="M171.461 38.0991H182.101V52.5723H179.422V40.7H174.141V52.5723H171.461V38.0991Z" fill="#7C7C7C"/>
<path d="M203.979 38.0991H206.13L212.154 52.5723H209.201L207.714 48.8364H202.394L200.908 52.5723H197.954L203.979 38.0991ZM206.697 46.2355L205.054 42.0105L203.411 46.2355H206.697Z" fill="#7C7C7C"/>
<path d="M228.222 38.0991H230.901V43.9082H236.182V38.0991H238.862V52.5723H236.182V46.5091H230.901V52.5723H228.222V38.0991Z" fill="#7C7C7C"/>
<path d="M258.744 38.0991V48.2693L265.198 38.0991H267.878V52.5723H265.198V42.4021L258.744 52.5723H256.064V38.0991H258.744Z" fill="#7C7C7C"/>
<path d="M294 52.5723H291.32V46.9588H291.281L287.408 52.5723H284.279L288.269 47.233C286.039 46.9588 284.376 45.3553 284.376 42.8319C284.376 41.4046 284.944 38.0991 289.814 38.0991H294V52.5723ZM289.736 40.7C287.604 40.7 287.056 41.7957 287.056 42.8519C287.056 43.9082 287.604 45.003 289.736 45.003H291.32V40.7H289.736Z" fill="#7C7C7C"/>
<defs>
<clipPath id="clip0">
<rect width="73.7665" height="70.6929" fill="white" transform="translate(0 0.654297)"/>
</clipPath>
</defs>
</svg>
