<svg width="24" height="21" viewBox="0 0 24 21" fill="none" xmlns="http://www.w3.org/2000/svg">
<path fill-rule="evenodd" clip-rule="evenodd" d="M23.0261 8.57845L23.0261 0.405517L12.9196 0.405518L12.9196 9.43412L18.0225 9.43412C18.0225 9.6295 18.0225 9.83283 18.0225 10.0081C18.0225 10.5529 17.859 12.1871 16.7798 13.617C15.7599 14.9684 12.9208 15.2173 12.9208 15.2173L12.9208 15.8982C12.9208 15.8982 12.8767 20.1455 12.9152 20.1455C13.6606 20.1455 14.6798 20.0283 16.5366 19.47C19.1522 18.6835 21.2738 15.9616 22.0777 14.6385C23.0006 13.1194 23.0475 11.0295 23.0475 11.0295L23.0475 8.57816L23.0261 8.57845Z" fill="#9F9EA4"/>
<path fill-rule="evenodd" clip-rule="evenodd" d="M10.5764 8.57845L10.5764 0.405517L0.469903 0.405518L0.469904 9.43412L5.57278 9.43412C5.57278 9.6295 5.57278 9.83283 5.57278 10.0081C5.57278 10.5529 5.40926 12.1871 4.33006 13.617C3.31016 14.9684 0.471071 15.2173 0.471071 15.2173L0.471071 15.8982C0.471071 15.8982 0.427008 20.1455 0.465448 20.1455C1.21086 20.1455 2.23014 20.0283 4.08691 19.47C6.70247 18.6835 8.82414 15.9616 9.62799 14.6385C10.5509 13.1194 10.5979 11.0295 10.5979 11.0295L10.5979 8.57816L10.5764 8.57845Z" fill="#9F9EA4"/>
</svg>
