<svg width="23" height="20" viewBox="0 0 23 20" fill="none" xmlns="http://www.w3.org/2000/svg">
<path fill-rule="evenodd" clip-rule="evenodd" d="M0.267355 11.7515L0.267356 19.9244L10.3738 19.9244L10.3738 10.8958L5.27096 10.8958C5.27096 10.7005 5.27096 10.4971 5.27096 10.3219C5.27096 9.7771 5.43448 8.14288 6.51369 6.71292C7.53359 5.36154 10.3727 5.11271 10.3727 5.11271L10.3727 4.43178C10.3727 4.43178 10.4167 0.184435 10.3783 0.184435C9.63289 0.184435 8.61361 0.301689 6.75684 0.859986C4.14128 1.64644 2.0196 4.3684 1.21575 5.6915C0.292844 7.2106 0.24587 9.30045 0.24587 9.30045L0.24587 11.7518L0.267355 11.7515Z" fill="#9F9EA4"/>
<path fill-rule="evenodd" clip-rule="evenodd" d="M12.7171 11.7515L12.7171 19.9244L22.8236 19.9244L22.8236 10.8958L17.7207 10.8958C17.7207 10.7005 17.7207 10.4971 17.7207 10.3219C17.7207 9.7771 17.8842 8.14288 18.9634 6.71292C19.9833 5.36154 22.8224 5.11271 22.8224 5.11271L22.8224 4.43178C22.8224 4.43178 22.8664 0.184435 22.828 0.184435C22.0826 0.184435 21.0633 0.301689 19.2065 0.859986C16.591 1.64644 14.4693 4.3684 13.6655 5.6915C12.7426 7.2106 12.6956 9.30045 12.6956 9.30045L12.6956 11.7518L12.7171 11.7515Z" fill="#9F9EA4"/>
</svg>
